<svg width="430" height="932" viewBox="0 0 430 932" fill="none" xmlns="http://www.w3.org/2000/svg">
<g clip-path="url(#clip0_6_5)">
<rect width="430" height="932" fill="#212121"/>
<path d="M-35 0H465V185C465 320.31 355.31 430 220 430H210C74.6902 430 -35 320.31 -35 185V0Z" fill="#ECEDEB"/>
<g clip-path="url(#clip1_6_5)">
<path d="M199.485 495C234.546 495 262.97 489.004 262.97 481.608C262.97 474.211 234.546 468.215 199.485 468.215C164.423 468.215 136 474.211 136 481.608C136 489.004 164.423 495 199.485 495Z" fill="#ECEDEB"/>
<path d="M261.884 218.555C259.318 218.088 256.679 218.224 254.175 218.953C251.671 219.683 249.371 220.985 247.457 222.756C241.252 228.729 243.23 236.187 244.484 240.169C245.738 244.151 245.777 245.637 244.975 246.878C244.174 248.119 240.502 252.049 239.998 253.342C239.494 254.634 250.198 260.296 250.198 260.296L258.652 255.332C258.652 255.332 266.111 259.805 266.848 259.56C267.584 259.314 270.079 255.332 272.329 246.128C274.578 236.924 274.061 229.97 271.036 224.747C268.011 219.524 261.884 218.555 261.884 218.555Z" fill="#F5BA99"/>
<path d="M256.907 238.45C256.907 238.45 255.614 234.714 253.429 237.946C251.245 241.177 251.943 243.672 252.925 244.163L253.921 244.668C253.69 246.551 254.042 248.459 254.929 250.136C255.925 252.026 257.183 253.767 258.665 255.307" stroke="#393762" stroke-width="0.5" stroke-miterlimit="10"/>
<path d="M273.027 230.086C272.628 228.225 271.952 226.434 271.023 224.773C268.05 219.602 261.832 218.555 261.832 218.555C259.274 218.096 256.645 218.237 254.151 218.966C251.656 219.695 249.365 220.992 247.457 222.756C241.252 228.729 243.23 236.187 244.484 240.169C245.402 243.103 245.634 244.681 245.389 245.805C247.334 245.997 249.297 245.853 251.193 245.379C251.878 245.186 252.518 244.861 253.077 244.42C253.636 243.98 254.102 243.434 254.449 242.813C254.796 242.192 255.017 241.508 255.099 240.802C255.182 240.095 255.124 239.379 254.929 238.695C254.179 237.209 256.222 235.683 256.222 235.683C256.222 235.683 257.721 239.665 259.453 237.183C261.186 234.701 258.161 231.211 261.199 229.22C264.236 227.229 267.416 227.229 271.139 229.22C271.741 229.564 272.373 229.854 273.027 230.086V230.086Z" fill="#393762"/>
<path d="M273.027 230.086C273.027 230.086 274.759 231.236 277.241 228.005C279.723 224.773 279.723 219.059 277.745 220.546C276.808 221.232 275.911 221.97 275.056 222.756C275.056 222.756 273.027 214.082 270.338 215.078C269.581 215.308 268.913 215.765 268.423 216.387C267.933 217.008 267.645 217.765 267.597 218.555C267.597 218.555 262.375 214.586 261.392 215.827C260.896 216.492 260.308 217.084 259.647 217.585C259.647 217.585 260.139 217.844 258.652 218.335C257.559 218.829 256.614 219.6 255.911 220.572C255.911 220.572 264.12 221.541 266.563 224.049C269.006 226.557 273.027 230.086 273.027 230.086Z" fill="#393762"/>
<path d="M255.42 271.517C255.42 271.517 259.893 273.004 260.139 280.463C260.384 287.922 266.111 307.066 266.111 307.066C266.111 307.066 272.82 299.608 274.061 298.108C275.302 296.608 277.797 296.13 280.279 300.357C282.761 304.584 282.024 309.548 278.288 315.521C274.552 321.493 267.597 330.439 261.884 329.443C256.17 328.448 246.72 311.294 246.462 309.367C246.203 307.441 250.947 287.236 251.632 284.005C252.318 280.773 255.42 271.517 255.42 271.517Z" fill="#393762"/>
<path d="M200.726 343.366C200.726 343.366 197.248 348.084 198.489 352.557C199.35 355.533 200.431 358.44 201.721 361.257C201.721 361.257 193.512 387.861 191.586 393.393C189.66 398.926 191.095 399.366 185.873 402.597C180.65 405.829 169.21 410.354 165.487 422.234C162.674 431.15 159.271 439.869 155.3 448.333C153.801 451.319 153.051 453.065 149.819 453.065C146.587 453.065 141.054 451.565 140.563 455.728C140.303 459.701 140.303 463.686 140.563 467.659C140.563 469.159 136.827 471.641 138.327 476.863C139.826 482.086 142.554 486.804 144.041 487.308C145.527 487.813 148.268 487.05 148.513 485.809C148.759 484.568 145.786 482.577 147.221 478.053C148.656 473.528 156.166 466.418 160.393 462.385C164.621 458.352 174.613 440.758 182.02 432.808C189.428 424.858 198.05 414.956 203.958 409.733C209.865 404.511 222.055 384.383 224.641 379.91C227.226 375.438 229.812 369.22 229.812 369.22C229.812 369.22 255.911 374.184 260.384 374.934C263.417 375.477 266.41 376.224 269.343 377.17C264.452 381.777 261.072 387.758 259.647 394.324C257.657 404.769 253.184 423.656 250.947 429.873C248.711 436.091 246.966 439.814 245.479 443.046C243.993 446.278 241.498 450.505 243.23 452.496C244.962 454.487 254.425 455.728 259.143 456.477C263.861 457.227 273.066 456.969 275.056 455.185C277.047 453.401 277.293 452.444 276.052 452.199C274.811 451.953 267.843 447.48 265.852 445.735C263.861 443.99 262.375 441.017 262.62 439.763C262.866 438.509 274.061 413.909 279.038 403.968C284.015 394.027 289.47 376.627 290.97 372.645C292.469 368.664 292.96 367.914 291.461 365.936C289.961 363.958 280.77 356.978 265.361 348.524C249.952 340.069 241.498 339.875 236.831 339.1C232.164 338.324 224.163 331.137 213.472 335.868C202.781 340.599 200.726 343.366 200.726 343.366Z" fill="#F5BA99"/>
<path d="M256.222 269.022C256.782 276.568 256.535 284.151 255.485 291.645C253.74 304.83 244.29 324.466 243.553 329.133C242.816 333.8 246.035 336.889 245.04 338.337C244.044 339.785 242.002 340.392 239.507 340.392C237.012 340.392 227.33 337.898 219.612 339.397C211.895 340.897 203.453 347.851 201.721 347.153C199.989 346.455 197.248 343.366 198.981 340.392C200.713 337.419 202.458 335.661 203.958 332.636C205.457 329.611 212.903 306.032 214.648 298.328C216.393 290.623 215.644 281.665 215.398 275.447C215.152 269.229 220.362 259.081 224.343 257.659C228.325 256.237 239.507 259.081 240.709 259.081C241.911 259.081 253.921 262.83 256.222 269.022Z" fill="#393762"/>
<path d="M250.198 267.031C250.198 267.031 255.911 274.245 256.661 273.753C257.411 273.262 260.139 270.767 257.954 264.795C255.769 258.823 250.495 254.854 245.027 250.136C239.559 245.417 233.845 238.204 230.109 242.379C226.373 246.555 219.367 256.367 222.353 259.585C225.339 262.804 240.994 263.554 244.484 264.756C247.974 265.958 250.198 267.031 250.198 267.031Z" fill="#85B7E3"/>
<path d="M188.29 319.244C188.913 321.433 189.835 323.525 191.03 325.462C193.021 328.693 194.017 332.171 192.763 333.412C191.509 334.653 191.47 334.705 186.558 336.152C181.645 337.6 179.59 336.644 179.099 335.403C178.608 334.162 180.585 332.636 180.585 332.636C179.703 332.423 178.912 331.93 178.332 331.231C177.752 330.533 177.414 329.665 177.367 328.758C177.523 325.511 177.856 322.274 178.362 319.063L188.057 318.313L188.29 319.244Z" fill="#F5BA99"/>
<path d="M176.604 314.021C176.604 314.021 176.358 318.998 177.897 320.239C179.435 321.48 187.333 320.239 188.329 319.244C189.324 318.248 189.621 311.785 189.621 311.785L176.604 314.021Z" fill="#85B7E3"/>
<path d="M237.025 265.299C234.569 262.851 231.596 260.983 228.325 259.831C223.154 258.086 206.685 259.327 195.258 262.313C183.83 265.299 179.099 265.054 177.367 269.526C175.634 273.999 172.894 308.799 173.385 312.78C173.876 316.762 181.839 317.007 185.575 316.012C189.311 315.017 192.284 312.535 193.525 307.312C194.766 302.09 194.521 283.449 196.266 281.458C198.011 279.467 218.643 280.708 224.356 279.971C230.07 279.235 234.052 277.476 235.047 275.99" fill="#393762"/>
<path d="M277.293 296.44C277.293 296.44 273.066 298.677 273.815 302.4C274.565 306.123 278.288 308.863 279.775 308.618C281.261 308.372 284.26 304.391 284.26 304.391C284.26 304.391 284.752 294.385 277.293 296.44Z" fill="#85B7E3"/>
<path d="M276.801 299.103C276.801 299.103 278.792 304.83 281.274 305.076C283.756 305.321 284.997 303.783 287.983 300.849C290.97 297.914 293.956 295.678 293.956 291.645C293.956 287.611 292.96 282.208 290.724 281.949C289.376 281.803 288.012 281.976 286.742 282.453C286.742 282.453 285.993 280.954 283.756 282.699C281.52 284.444 282.024 285.685 280.77 287.87C279.687 289.362 279.224 291.215 279.477 293.041C279.606 293.945 279.688 294.855 279.723 295.768L276.801 299.103Z" fill="#F5BA99"/>
<path d="M286.742 282.453C287.492 283.746 288.733 290.404 287.738 291.399C286.742 292.394 284.997 294.385 284.506 292.149C284.015 289.912 283.006 286.681 283.006 286.681" stroke="#393762" stroke-width="0.5" stroke-miterlimit="10"/>
<path d="M265.361 348.575C249.952 340.134 241.498 339.875 236.831 339.1C232.164 338.324 224.163 331.137 213.472 335.868C202.781 340.599 200.79 343.327 200.79 343.327C200.79 343.327 197.313 348.045 198.554 352.518C199.415 355.494 200.495 358.402 201.786 361.218C201.786 361.218 193.512 387.861 191.586 393.393C191.483 393.678 191.431 393.897 191.341 394.156C193.525 394.932 196.098 395.888 199.097 397.129C202.909 398.681 206.094 401.46 208.146 405.028C214.12 396.975 219.61 388.575 224.589 379.872C227.071 375.386 229.76 369.181 229.76 369.181C229.76 369.181 255.86 374.145 260.332 374.895C261.845 375.14 263.344 375.476 264.676 375.813C265.428 370.972 266.988 366.292 269.291 361.968C271.747 357.547 274.009 355.504 275.69 354.548C272.678 352.712 269.213 350.734 265.361 348.575Z" fill="#DB5855"/>
<path d="M275.056 455.236C277.047 453.491 277.293 452.496 276.052 452.25C274.811 452.005 267.843 447.532 265.852 445.787C263.862 444.042 262.375 441.068 262.621 439.814C262.711 439.414 263.913 436.57 265.723 432.575C263.594 433.225 261.365 433.488 259.143 433.351C256.208 432.83 253.335 432.003 250.572 430.882C248.517 436.479 246.875 439.995 245.479 443.046C244.083 446.097 241.498 450.505 243.23 452.496C244.962 454.487 254.425 455.728 259.143 456.477C263.862 457.227 273.027 456.969 275.056 455.236Z" fill="#DECBB7"/>
<path d="M276.052 452.25C274.759 452.005 267.843 447.532 265.852 445.787C263.861 444.042 262.375 441.068 262.62 439.814C262.62 439.814 261.638 436.583 259.389 436.091C257.139 435.6 256.157 442.309 256.157 442.309L246.681 440.409L245.479 442.994C243.98 446.226 241.498 450.453 243.23 452.444C244.962 454.435 254.425 455.676 259.143 456.426C263.861 457.175 273.066 456.917 275.056 455.133C277.047 453.349 277.293 452.496 276.052 452.25Z" fill="#393762"/>
<path d="M158.209 456.736C156.239 455.081 154.807 452.875 154.098 450.402C153.723 451.229 153.103 451.921 152.321 452.384C151.54 452.847 150.634 453.057 149.729 452.987C146.497 452.987 141.029 451.488 140.537 455.715C140.278 459.688 140.278 463.673 140.537 467.646C140.537 469.146 136.801 471.628 138.301 476.85C139.801 482.073 142.528 486.791 144.015 487.295C145.501 487.8 148.242 487.037 148.488 485.796C148.733 484.555 145.76 482.564 147.195 478.04C148.63 473.515 156.14 466.405 160.367 462.372C161.38 461.352 162.305 460.25 163.134 459.076C161.378 458.562 159.716 457.772 158.209 456.736V456.736Z" fill="#DECBB7"/>
<path d="M154.382 468.37C154.186 468.022 153.97 467.686 153.736 467.362C152.249 465.371 149.754 467.608 149.754 467.608C148.237 465.803 147.44 463.501 147.518 461.144C147.712 458.248 150.297 454.319 151.396 452.716C150.846 452.875 150.275 452.954 149.703 452.948C146.471 452.948 141.003 451.449 140.512 455.676C140.252 459.649 140.252 463.635 140.512 467.608C140.512 469.107 136.776 471.589 138.275 476.812C139.775 482.034 142.502 486.753 143.989 487.257C145.476 487.761 148.216 486.998 148.462 485.757C148.707 484.516 145.734 482.525 147.169 478.001C148.164 475.428 151.189 471.783 154.382 468.37Z" fill="#393762"/>
</g>
</g>
<defs>
<clipPath id="clip0_6_5">
<rect width="430" height="932" fill="white"/>
</clipPath>
<clipPath id="clip1_6_5">
<rect width="157.956" height="280" fill="white" transform="translate(136 215)"/>
</clipPath>
</defs>
</svg>
