<svg width="430" height="932" viewBox="0 0 430 932" fill="none" xmlns="http://www.w3.org/2000/svg">
<g clip-path="url(#clip0_6_5)">
<rect width="430" height="932" fill="#212121"/>
<path d="M-35 0H465V185C465 320.31 355.31 430 220 430H210C74.6902 430 -35 320.31 -35 185V0Z" fill="#ECEDEB"/>
<g clip-path="url(#clip1_6_5)">
<path d="M186.227 618C238.82 618 281.454 609.006 281.454 597.911C281.454 586.817 238.82 577.823 186.227 577.823C133.635 577.823 91 586.817 91 597.911C91 609.006 133.635 618 186.227 618Z" fill="#ECEDEB"/>
<path d="M279.825 203.332C275.977 202.632 272.018 202.836 268.262 203.93C264.506 205.024 261.056 206.977 258.186 209.634C248.878 218.593 251.845 229.781 253.726 235.753C255.607 241.726 255.665 243.956 254.463 245.817C253.26 247.679 247.753 253.573 246.997 255.512C246.241 257.452 262.296 265.945 262.296 265.945L274.978 258.499C274.978 258.499 286.166 265.208 287.271 264.839C288.377 264.471 292.119 258.499 295.493 244.693C298.867 230.886 298.091 220.454 293.554 212.621C289.017 204.787 279.825 203.332 279.825 203.332Z" fill="#F5BA99"/>
<path d="M272.36 233.175C272.36 233.175 270.421 227.571 267.144 232.418C263.867 237.266 264.914 241.008 266.388 241.745L267.881 242.501C267.535 245.326 268.063 248.188 269.393 250.704C270.887 253.54 272.774 256.151 274.997 258.46" stroke="#393762" stroke-width="0.5" stroke-miterlimit="10"/>
<path d="M296.54 220.629C295.941 217.837 294.928 215.151 293.535 212.659C289.075 204.903 279.748 203.332 279.748 203.332C275.911 202.644 271.967 202.855 268.226 203.949C264.485 205.042 261.048 206.988 258.186 209.634C248.878 218.593 251.845 229.781 253.726 235.753C255.103 240.155 255.452 242.521 255.083 244.208C258 244.495 260.946 244.279 263.789 243.568C264.817 243.279 265.777 242.791 266.615 242.131C267.453 241.47 268.153 240.651 268.673 239.719C269.194 238.788 269.526 237.763 269.649 236.703C269.773 235.643 269.686 234.569 269.393 233.543C268.269 231.313 271.332 229.025 271.332 229.025C271.332 229.025 273.582 234.997 276.18 231.274C278.778 227.551 274.241 222.316 278.798 219.33C283.355 216.343 288.125 216.343 293.709 219.33C294.612 219.846 295.56 220.281 296.54 220.629V220.629Z" fill="#393762"/>
<path d="M296.54 220.629C296.54 220.629 299.139 222.355 302.862 217.507C306.585 212.659 306.585 204.089 303.618 206.319C302.212 207.347 300.866 208.454 299.585 209.634C299.585 209.634 296.54 196.623 292.507 198.116C291.371 198.462 290.369 199.148 289.634 200.08C288.899 201.012 288.467 202.147 288.396 203.332C288.396 203.332 280.562 197.379 279.089 199.241C278.344 200.238 277.463 201.126 276.471 201.878C276.471 201.878 277.208 202.266 274.978 203.003C273.339 203.743 271.921 204.9 270.867 206.357C270.867 206.357 283.18 207.812 286.845 211.573C290.51 215.335 296.54 220.629 296.54 220.629Z" fill="#393762"/>
<path d="M270.13 282.776C270.13 282.776 276.839 285.006 277.208 296.194C277.576 307.382 286.166 336.1 286.166 336.1C286.166 336.1 296.23 324.911 298.091 322.662C299.953 320.413 303.695 319.695 307.418 326.036C311.141 332.377 310.036 339.823 304.432 348.781C298.828 357.74 288.396 371.158 279.825 369.665C271.255 368.172 257.08 342.44 256.693 339.551C256.305 336.662 263.421 306.355 264.449 301.507C265.476 296.659 270.13 282.776 270.13 282.776Z" fill="#393762"/>
<path d="M188.089 390.548C188.089 390.548 182.873 397.626 184.734 404.335C186.026 408.799 187.646 413.161 189.582 417.385C189.582 417.385 177.269 457.291 174.38 465.59C171.49 473.889 173.643 474.548 165.809 479.396C157.975 484.244 140.814 491.03 135.23 508.85C131.011 522.225 125.907 535.304 119.95 548C117.701 552.479 116.576 555.097 111.729 555.097C106.881 555.097 98.5817 552.848 97.8449 559.091C97.4552 565.051 97.4552 571.029 97.8449 576.989C97.8449 579.238 92.241 582.961 94.4903 590.795C96.7396 598.629 100.831 605.706 103.061 606.463C105.291 607.219 109.402 606.075 109.77 604.213C110.139 602.352 105.679 599.366 107.831 592.579C109.983 585.792 121.249 575.127 127.59 569.078C133.931 563.028 148.92 536.637 160.03 524.712C171.141 512.787 184.075 497.934 192.936 490.1C201.798 482.266 220.083 452.075 223.961 445.366C227.839 438.657 231.717 429.33 231.717 429.33C231.717 429.33 270.867 436.776 277.576 437.9C282.126 438.715 286.615 439.836 291.014 441.255C283.679 448.166 278.608 457.137 276.471 466.986C273.485 482.654 266.776 510.983 263.421 520.31C260.066 529.637 257.449 535.222 255.219 540.069C252.989 544.917 249.247 551.258 251.845 554.244C254.443 557.23 268.637 559.091 275.715 560.216C282.792 561.341 296.598 560.953 299.584 558.277C302.571 555.601 302.939 554.166 301.078 553.798C299.216 553.429 288.765 546.72 285.778 544.102C282.792 541.485 280.562 537.025 280.931 535.144C281.299 533.263 298.091 496.363 305.557 481.452C313.022 466.54 321.205 440.44 323.454 434.468C325.704 428.496 326.44 427.371 324.191 424.404C321.942 421.438 308.155 410.967 285.042 398.285C261.928 385.604 249.247 385.313 242.247 384.15C235.247 382.986 223.244 372.205 207.208 379.302C191.172 386.399 188.089 390.548 188.089 390.548Z" fill="#F5BA99"/>
<path d="M271.332 279.033C272.173 290.352 271.802 301.727 270.227 312.967C267.609 332.745 253.435 362.199 252.33 369.199C251.224 376.199 256.053 380.834 254.56 383.006C253.066 385.177 250.003 386.089 246.26 386.089C242.518 386.089 227.994 382.346 216.418 384.596C204.842 386.845 192.18 397.277 189.582 396.23C186.983 395.183 182.873 390.548 185.471 386.089C188.069 381.629 190.687 378.992 192.936 374.454C195.186 369.917 206.355 334.548 208.972 322.992C211.59 311.435 210.465 297.997 210.097 288.67C209.729 279.343 217.543 264.122 223.515 261.989C229.488 259.856 246.26 264.122 248.064 264.122C249.867 264.122 267.881 269.745 271.332 279.033Z" fill="#393762"/>
<path d="M262.296 276.047C262.296 276.047 270.867 286.867 271.992 286.13C273.116 285.393 277.208 281.651 273.931 272.693C270.654 263.734 262.742 257.781 254.54 250.704C246.338 243.626 237.767 232.806 232.163 239.069C226.56 245.332 216.05 260.05 220.529 264.878C225.008 269.706 248.49 270.831 253.726 272.634C258.961 274.438 262.296 276.047 262.296 276.047Z" fill="#85B7E3"/>
<path d="M169.435 354.366C170.369 357.649 171.753 360.788 173.546 363.693C176.532 368.54 178.025 373.756 176.144 375.618C174.263 377.479 174.205 377.557 166.837 379.729C159.468 381.9 156.385 380.465 155.648 378.604C154.911 376.742 157.878 374.454 157.878 374.454C156.554 374.134 155.369 373.395 154.499 372.347C153.629 371.299 153.12 369.998 153.05 368.637C153.285 363.766 153.783 358.911 154.543 354.094L169.086 352.97L169.435 354.366Z" fill="#F5BA99"/>
<path d="M151.906 346.532C151.906 346.532 151.537 353.997 153.845 355.859C156.152 357.72 168 355.859 169.493 354.366C170.986 352.873 171.432 343.177 171.432 343.177L151.906 346.532Z" fill="#85B7E3"/>
<path d="M242.537 273.449C238.853 269.776 234.394 266.974 229.488 265.247C221.731 262.629 197.028 264.49 179.886 268.97C162.745 273.449 155.648 273.08 153.05 279.789C150.452 286.499 146.341 338.698 147.078 344.67C147.814 350.643 159.759 351.011 165.363 349.518C170.967 348.025 175.427 344.302 177.288 336.468C179.15 328.634 178.781 300.673 181.399 297.687C184.017 294.701 214.964 296.562 223.535 295.457C232.105 294.352 238.078 291.715 239.571 289.485" fill="#393762"/>
<path d="M302.939 320.161C302.939 320.161 296.598 323.515 297.723 329.1C298.848 334.684 304.432 338.795 306.662 338.427C308.892 338.058 313.391 332.086 313.391 332.086C313.391 332.086 314.127 317.078 302.939 320.161Z" fill="#85B7E3"/>
<path d="M302.202 324.155C302.202 324.155 305.188 332.745 308.911 333.114C312.634 333.482 314.496 331.175 318.975 326.773C323.454 322.371 327.934 319.017 327.934 312.967C327.934 306.917 326.44 298.812 323.086 298.424C321.063 298.205 319.018 298.464 317.114 299.18C317.114 299.18 315.989 296.931 312.634 299.548C309.28 302.166 310.036 304.028 308.155 307.305C306.531 309.543 305.836 312.322 306.216 315.061C306.409 316.417 306.532 317.783 306.585 319.152L302.202 324.155Z" fill="#F5BA99"/>
<path d="M317.114 299.18C318.238 301.119 320.1 311.105 318.607 312.598C317.114 314.091 314.496 317.078 313.759 313.723C313.022 310.368 311.51 305.521 311.51 305.521" stroke="#393762" stroke-width="0.5" stroke-miterlimit="10"/>
<path d="M285.042 398.363C261.928 385.701 249.247 385.313 242.247 384.15C235.247 382.986 223.244 372.205 207.208 379.302C191.172 386.399 188.186 390.49 188.186 390.49C188.186 390.49 182.97 397.568 184.831 404.277C186.123 408.741 187.743 413.103 189.679 417.327C189.679 417.327 177.269 457.291 174.38 465.59C174.224 466.017 174.147 466.346 174.011 466.734C177.288 467.897 181.147 469.332 185.645 471.194C191.363 473.521 196.14 477.691 199.219 483.042C208.18 470.962 216.416 458.362 223.884 445.307C227.607 438.579 231.64 429.271 231.64 429.271C231.64 429.271 270.789 436.717 277.499 437.842C279.767 438.211 282.017 438.715 284.014 439.219C285.143 431.958 287.483 424.938 290.936 418.452C294.621 411.82 298.014 408.756 300.535 407.321C296.017 404.568 290.82 401.601 285.042 398.363Z" fill="#DB5855"/>
<path d="M299.585 558.355C302.571 555.737 302.939 554.244 301.078 553.875C299.216 553.507 288.765 546.798 285.778 544.18C282.792 541.562 280.562 537.103 280.931 535.222C281.067 534.621 282.87 530.355 285.585 524.363C282.391 525.338 279.048 525.732 275.715 525.526C271.311 524.746 267.003 523.504 262.859 521.823C259.776 530.219 257.313 535.493 255.219 540.069C253.125 544.645 249.247 551.258 251.845 554.244C254.443 557.23 268.637 559.091 275.715 560.216C282.792 561.341 296.54 560.953 299.585 558.355Z" fill="#DECBB7"/>
<path d="M301.078 553.875C299.138 553.507 288.765 546.798 285.778 544.18C282.792 541.562 280.562 537.102 280.931 535.222C280.931 535.222 279.457 530.374 276.083 529.637C272.709 528.9 271.235 538.964 271.235 538.964L257.022 536.114L255.219 539.992C252.97 544.839 249.247 551.18 251.845 554.166C254.443 557.152 268.637 559.014 275.715 560.138C282.792 561.263 296.598 560.875 299.584 558.199C302.571 555.524 302.939 554.244 301.078 553.875Z" fill="#393762"/>
<path d="M124.313 560.604C121.358 558.121 119.211 554.813 118.147 551.103C117.585 552.344 116.655 553.382 115.482 554.076C114.309 554.77 112.951 555.086 111.593 554.981C106.745 554.981 98.5429 552.731 97.8061 559.072C97.4164 565.032 97.4164 571.01 97.8061 576.97C97.8061 579.219 92.2022 582.942 94.4515 590.776C96.7008 598.609 100.792 605.687 103.022 606.443C105.252 607.199 109.363 606.055 109.731 604.194C110.1 602.332 105.64 599.346 107.792 592.56C109.945 585.773 121.211 575.108 127.551 569.058C129.07 567.529 130.458 565.875 131.701 564.114C129.068 563.343 126.574 562.158 124.313 560.604V560.604Z" fill="#DECBB7"/>
<path d="M118.573 578.055C118.279 577.534 117.955 577.029 117.604 576.543C115.374 573.557 111.632 576.911 111.632 576.911C109.355 574.204 108.16 570.751 108.277 567.216C108.568 562.873 112.446 556.978 114.094 554.573C113.269 554.813 112.413 554.93 111.554 554.922C106.706 554.922 98.5042 552.673 97.7673 559.014C97.3776 564.973 97.3776 570.952 97.7673 576.911C97.7673 579.161 92.1634 582.884 94.4127 590.717C96.6621 598.551 100.753 605.629 102.983 606.385C105.213 607.141 109.324 605.997 109.693 604.136C110.061 602.274 105.601 599.288 107.753 592.501C109.247 588.643 113.784 583.174 118.573 578.055Z" fill="#393762"/>
</g>
</g>
<defs>
<clipPath id="clip0_6_5">
<rect width="430" height="932" fill="white"/>
</clipPath>
<clipPath id="clip1_6_5">
<rect width="236.934" height="420" fill="white" transform="translate(91 198)"/>
</clipPath>
</defs>
</svg>
