<svg id="Layer_1" data-name="Layer 1" xmlns="http://www.w3.org/2000/svg" viewBox="0 0 98.22 215.57"><defs><style>.cls-1{fill:#ecedeb;}.cls-2{fill:#f5ba99;}.cls-3{fill:#77a0d4;}.cls-4{fill:#38344a;}.cls-5{fill:#393762;}.cls-6{fill:#85b7e3;}.cls-7{fill:#1f83b9;}.cls-8{fill:#db5855;}.cls-9{fill:#fff;stroke:#393762;stroke-miterlimit:10;stroke-width:0.5px;}</style></defs><ellipse class="cls-1" cx="49.11" cy="205.21" rx="49.11" ry="10.36"/><path class="cls-2" d="M91.51,99.73s2.23,4.86,1.82,6.69-3.85,4.66-6.08,5.27-4.46-2.84-5.48-5.48-3.44-7.5-1.42-9.32S89.88,96.28,91.51,99.73Z"/><path class="cls-3" d="M93.33,41.13s0,9.73,1,18.86,3.25,16.22,2,21.69-3.44,17.44-4.86,18-1.83-2-5.07-2a12.45,12.45,0,0,0-5.88,1.62s0-9.73.4-19.26-2.84-20.68.81-26.16,6.29-8.72,7.51-10.54S93.33,41.13,93.33,41.13Z"/><path class="cls-4" d="M78.53,139.87s-6.29,1.42-7.1,1.42,1.42-7.3,1.42-7.3,2.84.2,3.65,1.42A32.88,32.88,0,0,1,78.53,139.87Z"/><path class="cls-2" d="M55.62,129.94s.2,17,.4,22.71.81,27,.41,31.63-1.62,10.74-.61,13.78,5.48.61,8.72-3.44,8.11-24.34,8.11-28.59-.81-17,0-21.9,2.43-11.76,2.43-12.37-5.27-5.47-11.55-5.47S55.62,129.94,55.62,129.94Z"/><path class="cls-2" d="M36.36,136.22s.81,9.94,2.23,13.79,9.12,8.11,12.16,4.66,4.46-12.57,4.06-13.18S36.36,136.22,36.36,136.22Z"/><path class="cls-5" d="M34.94,110.07s.4,10.34,0,17-.41,11-.41,11,5.48,3.65,10.75,4.46a19.12,19.12,0,0,0,9.53-1L55,137s4.26-3.65,9.53-3,14,5.88,14,5.88.81-13.58,1.62-20.07-1.21-14.4-1.21-14.4Z"/><path class="cls-6" d="M49.94,31.8s-18.65,3.25-20.88,5.07S11.42,70.53,11,75.39s6.29,7.3,9.53,6.09S34.13,62.42,34.13,62.42s-3.05,47.44-1,49.67,26,3.86,33.05,3.86,13.18-2,14-3,.61-18,1.42-24.12S83.4,58.57,84,56.94s6.49-7.3,8.52-11.15,1-7.5-2.23-8.92S76.5,32.21,72.85,32.41,55.62,30.59,49.94,31.8Z"/><path class="cls-7" d="M43.25,18.22S45.48,15.38,54,13.76s14-1.63,18.45.2,8.72,2,8.31,4.05-1.42,8.93-4.26,12a17.37,17.37,0,0,1-14.19,4.86c-6.08-.6-11.76-3-14.6-5.47S43.25,18.22,43.25,18.22Z"/><path class="cls-2" d="M62.39.26a12.16,12.16,0,0,0-7.51,5.53c-3.2,5.63-1.32,12.79-.07,18.71.81,3.86,5.47,7.3,7.9,7.91s8.52-1.42,9.74-3.65,1.62-8.11,1.62-13.18c0-4.45-.89-10-4.15-13.37A7.67,7.67,0,0,0,62.39.26Z"/><path class="cls-8" d="M62.39.26a12.16,12.16,0,0,0-7.51,5.53c-2.32,4.09-2,9-1.11,13.62,1.8-2.28,5.53-6.22,10.36-7.07,5.28-.93,8.06,2.89,9.9,5.91,0-.89,0-1.79,0-2.67,0-4.45-.89-10-4.15-13.37A7.67,7.67,0,0,0,62.39.26Z"/><path class="cls-3" d="M43.25,18.22c.39-1.12,3.65,3.85,8.72,7.09s8.11,5.07,13,5.68,9.33-4.26,11.36-7.1S79.75,16.6,80.76,18,80,31.19,79.14,33.83,68.8,38.7,65.35,38.7a44.94,44.94,0,0,1-16-3.65C43.25,32.41,40.82,25.11,43.25,18.22Z"/><path class="cls-2" d="M51.16,72.76a35.62,35.62,0,0,1,4.66,0c.81.2,1.83,1.22.81,2a10.06,10.06,0,0,1-3.85,1.42C51.77,76.41,51.16,72.76,51.16,72.76Z"/><path class="cls-2" d="M39.19,75.8s5.28-3.65,6.09-4.66,2.43-.41,4.46.4S54.2,74.18,54,75.39s-1,5.88-3,6.49-5.06-.61-5.06-.61a6.25,6.25,0,0,1-2.84,2c-1.83.61-4.26-1.21-4.87-1.42S39.19,75.8,39.19,75.8Z"/><path class="cls-6" d="M19.12,69.51s7.1,2.44,12,3.86,9.74,1.62,9.13,2.84-4.87,11.55-4.87,11.55-16.83-1-22.3-2.23S5.94,79.25,7.56,76s6.7-8.31,6.7-8.31"/><line class="cls-9" x1="62.92" y1="38.49" x2="61.09" y2="115.34"/><line class="cls-9" x1="55.01" y1="137.03" x2="56.43" y2="119.19"/><path class="cls-8" d="M65.15,191s-3.25-3.65-5.27-3.65-6.09,5.27-6.7,9.53.61,5.27,0,6.89-1.82,1.82-1.82,3.65,3,3.65,5.27,2.64,5.88-4.47,8.31-10.35S65.15,191,65.15,191Z"/></svg>