<svg id="Layer_1" data-name="Layer 1" xmlns="http://www.w3.org/2000/svg" viewBox="0 0 122.19 216.6"><defs><style>.cls-1{fill:#ecedeb;}.cls-2{fill:#f5ba99;}.cls-3{fill:none;stroke:#393762;stroke-miterlimit:10;stroke-width:0.5px;}.cls-4{fill:#393762;}.cls-5{fill:#85b7e3;}.cls-6{fill:#db5855;}.cls-7{fill:#decbb7;}</style></defs><ellipse class="cls-1" cx="49.11" cy="206.24" rx="49.11" ry="10.36"/><path class="cls-2" d="M97.38,2.75A13,13,0,0,0,86.22,6c-4.8,4.62-3.27,10.39-2.3,13.47s1,4.23.38,5.19-3.46,4-3.85,5,7.89,5.38,7.89,5.38l6.54-3.84s5.77,3.46,6.34,3.27,2.5-3.27,4.24-10.39,1.34-12.5-1-16.54S97.38,2.75,97.38,2.75Z"/><path class="cls-3" d="M93.53,18.14s-1-2.89-2.69-.39-1.15,4.43-.39,4.81l.77.39A7.18,7.18,0,0,0,92,27.18a17.58,17.58,0,0,0,2.89,4"/><path class="cls-4" d="M106,11.67a14.76,14.76,0,0,0-1.55-4.11c-2.3-4-7.11-4.81-7.11-4.81A13,13,0,0,0,86.22,6c-4.8,4.62-3.27,10.39-2.3,13.47.71,2.27.89,3.49.7,4.36a13.18,13.18,0,0,0,4.49-.33A4.18,4.18,0,0,0,92,18.33C91.42,17.18,93,16,93,16s1.16,3.08,2.5,1.16-1-4.62,1.35-6.16,4.81-1.54,7.69,0A9,9,0,0,0,106,11.67Z"/><path class="cls-4" d="M106,11.67s1.34.89,3.26-1.61,1.92-6.92.39-5.77A24,24,0,0,0,107.57,6S106-.71,103.92.06a3,3,0,0,0-2.12,2.69S97.76-.32,97,.64A6.86,6.86,0,0,1,95.65,2s.38.2-.77.58a5.32,5.32,0,0,0-2.12,1.73S99.11,5.06,101,7,106,11.67,106,11.67Z"/><path class="cls-4" d="M92.38,43.72s3.46,1.15,3.65,6.92,4.62,20.58,4.62,20.58,5.19-5.77,6.15-6.93,2.89-1.53,4.81,1.74,1.35,7.11-1.54,11.73S101.8,89.3,97.38,88.53,85.65,74.49,85.45,73s3.47-17.12,4-19.62S92.38,43.72,92.38,43.72Z"/><path class="cls-2" d="M50.07,99.3s-2.69,3.65-1.73,7.11a48.55,48.55,0,0,0,2.5,6.73S44.49,133.72,43,138s-.38,4.62-4.42,7.12-12.89,6-15.77,15.19a162.94,162.94,0,0,1-7.88,20.19c-1.16,2.31-1.74,3.66-4.24,3.66S3.91,183,3.53,186.22a70.73,70.73,0,0,0,0,9.23c0,1.16-2.89,3.08-1.73,7.12s3.27,7.69,4.42,8.08,3.27-.2,3.46-1.16-2.11-2.5-1-6,6.92-9,10.19-12.12,11-16.73,16.73-22.88S48,154.68,52.57,150.64s14-19.61,16-23.07,4-8.27,4-8.27,20.19,3.84,23.65,4.42a53,53,0,0,1,6.93,1.73,25.73,25.73,0,0,0-7.5,13.27c-1.54,8.08-5,22.69-6.73,27.5s-3.08,7.69-4.23,10.19-3.08,5.77-1.74,7.31,8.66,2.5,12.31,3.08,10.77.38,12.31-1,1.73-2.12.77-2.31-6.35-3.65-7.89-5-2.69-3.65-2.5-4.62,8.85-20,12.7-27.69,8.07-21.15,9.23-24.23,1.54-3.66.38-5.19-8.27-6.93-20.19-13.47S81.61,96.6,78,96s-9.8-6.16-18.07-2.5S50.07,99.3,50.07,99.3Z"/><path class="cls-4" d="M93,41.79a82.23,82.23,0,0,1-.57,17.5c-1.35,10.2-8.66,25.39-9.23,29s1.92,6,1.15,7.12S82,97,80.07,97s-9.42-1.93-15.39-.77-12.5,6.54-13.84,6S47.38,99.3,48.72,97s2.69-3.66,3.85-6,6.92-20.58,8.27-26.54.77-12.89.58-17.7S65.26,34.1,68.34,33,80.07,34.1,81,34.1,91.22,37,93,41.79Z"/><path class="cls-5" d="M88.34,40.25s4.42,5.58,5,5.2,2.69-2.31,1-6.93-5.77-7.69-10-11.34-8.65-9.23-11.54-6S64.49,32,66.8,34.49s14.42,3.07,17.12,4S88.34,40.25,88.34,40.25Z"/><path class="cls-2" d="M40.45,80.64a19.12,19.12,0,0,0,2.12,4.81c1.54,2.5,2.31,5.19,1.34,6.15s-1,1-4.8,2.12-5.39.38-5.77-.58S34.49,91,34.49,91A3.26,3.26,0,0,1,32,88a69.72,69.72,0,0,1,.77-7.5l7.5-.58Z"/><path class="cls-5" d="M31.41,76.6s-.19,3.85,1,4.81,7.3,0,8.07-.77,1-5.77,1-5.77Z"/><path class="cls-4" d="M78.15,38.91a18,18,0,0,0-6.73-4.23c-4-1.35-16.74-.39-25.58,1.92S33.34,38.72,32,42.18s-3.46,30.38-3.08,33.46,6.54,3.27,9.43,2.5,5.19-2.69,6.15-6.73.77-18.46,2.12-20,17.31-.58,21.73-1.15,7.5-1.93,8.27-3.08"/><path class="cls-5" d="M109.3,63s-3.27,1.73-2.69,4.61,3.46,5,4.61,4.81,3.47-3.27,3.47-3.27S115.07,61.41,109.3,63Z"/><path class="cls-2" d="M108.92,65.06s1.54,4.43,3.46,4.62,2.88-1,5.19-3.27,4.62-4,4.62-7.12-.77-7.3-2.5-7.5a6.7,6.7,0,0,0-3.08.39s-.58-1.16-2.31.19-1.34,2.31-2.31,4a5.52,5.52,0,0,0-1,4,20.46,20.46,0,0,1,.19,2.11Z"/><path class="cls-3" d="M116.61,52.18c.58,1,1.54,6.15.77,6.92s-2.12,2.31-2.5.58-1.16-4.23-1.16-4.23"/><path class="cls-6" d="M100.07,103.33C88.15,96.8,81.61,96.6,78,96s-9.8-6.16-18.07-2.5-9.81,5.77-9.81,5.77-2.69,3.65-1.73,7.11a48.55,48.55,0,0,0,2.5,6.73S44.49,133.72,43,138c-.08.22-.12.39-.19.59,1.69.6,3.68,1.34,6,2.3A14.29,14.29,0,0,1,55.81,147a196.07,196.07,0,0,0,12.72-19.46c1.92-3.47,4-8.27,4-8.27s20.19,3.84,23.65,4.42c1.17.19,2.33.45,3.36.71a33.85,33.85,0,0,1,3.57-10.71c1.9-3.42,3.65-5,4.95-5.74C105.73,106.53,103.05,105,100.07,103.33Z"/><path class="cls-7" d="M107.57,185.84c1.54-1.35,1.73-2.12.77-2.31s-6.35-3.65-7.89-5-2.69-3.65-2.5-4.62c.07-.31,1-2.51,2.4-5.6a14.4,14.4,0,0,1-5.09.6A32.92,32.92,0,0,1,88.63,167c-1.59,4.33-2.86,7.05-3.94,9.41s-3.08,5.77-1.74,7.31,8.66,2.5,12.31,3.08S106,187.18,107.57,185.84Z"/><path class="cls-4" d="M108.34,183.53c-1-.19-6.35-3.65-7.89-5s-2.69-3.65-2.5-4.62c0,0-.76-2.5-2.5-2.88s-2.5,4.81-2.5,4.81l-7.33-1.47-.93,2c-1.16,2.5-3.08,5.77-1.74,7.31s8.66,2.5,12.31,3.08,10.77.38,12.31-1S109.3,183.72,108.34,183.53Z"/><path class="cls-7" d="M17.18,187A10,10,0,0,1,14,182.1a3.42,3.42,0,0,1-3.38,2c-2.5,0-6.73-1.16-7.11,2.11a70.73,70.73,0,0,0,0,9.23c0,1.16-2.89,3.08-1.73,7.12s3.27,7.69,4.42,8.08,3.27-.2,3.46-1.16-2.11-2.5-1-6,6.92-9,10.19-12.12a19.91,19.91,0,0,0,2.14-2.55A13.33,13.33,0,0,1,17.18,187Z"/><path class="cls-4" d="M14.22,196a8.32,8.32,0,0,0-.5-.78c-1.15-1.54-3.08.19-3.08.19a7.39,7.39,0,0,1-1.73-5c.15-2.24,2.15-5.28,3-6.52a4.55,4.55,0,0,1-1.31.18c-2.5,0-6.73-1.16-7.11,2.11a70.73,70.73,0,0,0,0,9.23c0,1.16-2.89,3.08-1.73,7.12s3.27,7.69,4.42,8.08,3.27-.2,3.46-1.16-2.11-2.5-1-6C9.41,201.46,11.75,198.64,14.22,196Z"/></svg>